<?xml version="1.0" standalone="no"?>
<!DOCTYPE svg PUBLIC "-//W3C//DTD SVG 20010904//EN"
 "http://www.w3.org/TR/2001/REC-SVG-20010904/DTD/svg10.dtd">
<svg version="1.0" xmlns="http://www.w3.org/2000/svg"
 width="500.000000pt" height="216.000000pt" viewBox="0 0 500.000000 216.000000"
 preserveAspectRatio="xMidYMid meet">

<g transform="translate(0.000000,216.000000) scale(0.100000,-0.100000)"
fill="#000000" stroke="none">
<path d="M2847 2096 c-113 -41 -207 -180 -287 -426 -58 -175 -110 -469 -110
-616 l0 -52 -50 -11 c-28 -6 -57 -11 -64 -11 -14 0 -26 21 -26 45 0 37 -46
129 -85 173 -64 72 -126 96 -231 90 -62 -3 -94 -11 -136 -31 -66 -32 -136
-104 -173 -177 -33 -64 -57 -177 -54 -247 3 -62 -12 -83 -83 -119 -60 -30
-139 -32 -184 -5 -64 39 -94 146 -94 337 l0 111 98 48 c219 108 341 300 342
536 0 217 -139 316 -313 222 -129 -71 -255 -304 -316 -588 -12 -54 -24 -101
-26 -103 -6 -7 -335 -26 -341 -20 -3 4 1 58 10 120 43 313 26 443 -68 526
-136 119 -437 11 -578 -207 -48 -76 -35 -171 24 -171 14 0 54 34 112 93 50 52
109 102 130 112 57 26 111 25 138 -3 20 -20 23 -35 26 -115 3 -83 -27 -349
-41 -363 -3 -3 -40 -9 -84 -13 -117 -12 -143 -32 -143 -108 0 -65 17 -77 108
-83 l80 -5 -49 -205 c-69 -296 -65 -338 37 -347 101 -8 129 30 182 255 22 92
46 194 52 227 6 33 13 67 16 76 3 13 24 18 92 23 98 7 238 24 264 32 14 4 16
-8 16 -113 0 -192 39 -312 129 -405 66 -68 128 -92 233 -92 75 -1 93 3 150 30
36 17 82 45 102 63 20 17 39 31 42 31 4 0 20 -16 37 -35 17 -19 56 -47 87 -62
48 -24 69 -28 137 -28 98 1 152 23 225 91 49 46 120 166 120 204 0 14 12 19
57 24 31 4 67 9 78 12 19 5 23 -1 35 -53 40 -182 141 -283 281 -283 57 0 153
34 208 73 l49 36 44 -43 c44 -42 100 -66 155 -66 69 0 159 50 198 110 25 37
30 37 45 0 16 -39 69 -85 115 -100 76 -25 152 8 265 116 87 83 110 122 110
184 0 96 -46 107 -118 28 -115 -129 -165 -164 -201 -141 -24 16 -19 150 13
316 42 222 37 237 -69 237 -61 0 -63 1 -75 31 l-13 31 -76 -4 c-102 -6 -175
-42 -261 -128 -93 -93 -146 -203 -165 -342 -13 -96 -152 -176 -239 -136 -24
10 -66 79 -66 106 0 6 38 69 84 139 204 311 320 604 333 843 9 171 -30 284
-111 321 -48 22 -77 23 -129 5z m60 -187 c18 -34 16 -181 -2 -278 -9 -45 -32
-128 -51 -184 -34 -99 -147 -341 -178 -382 -14 -19 -15 -17 -16 30 0 28 7 109
15 180 34 285 115 585 175 645 25 25 41 22 57 -11z m-1365 -76 c14 -13 18 -31
18 -92 -1 -137 -40 -240 -120 -315 -48 -45 -127 -92 -138 -82 -7 8 24 152 55
251 43 138 115 255 156 255 6 0 19 -7 29 -17z m1908 -712 c0 -5 -16 -88 -36
-183 -46 -225 -75 -278 -153 -278 -113 0 -87 269 40 400 22 23 55 48 72 55 37
16 77 19 77 6z m-1440 -54 c0 -71 27 -145 72 -193 l40 -43 -16 -49 c-19 -55
-56 -96 -104 -113 -47 -16 -100 12 -130 71 -21 40 -23 56 -20 140 3 72 9 105
25 135 31 59 71 92 116 94 14 1 17 -7 17 -42z"/>
<path d="M4414 346 c-93 -41 -112 -193 -33 -260 24 -21 41 -26 82 -26 60 0 80
10 71 33 -4 13 -10 14 -24 7 -82 -44 -162 48 -131 151 15 50 47 72 103 68 33
-3 44 0 46 12 2 11 -7 18 -29 23 -42 8 -49 7 -85 -8z"/>
<path d="M4661 343 c-47 -24 -72 -62 -78 -116 -7 -58 11 -110 48 -142 24 -20
41 -25 83 -25 86 0 136 54 136 147 0 109 -101 182 -189 136z m115 -46 c23 -20
28 -34 32 -85 4 -58 3 -63 -26 -92 -49 -49 -119 -36 -151 27 -25 49 -5 138 36
162 31 18 80 12 109 -12z"/>
<path d="M2550 325 c-5 -14 -30 -75 -55 -136 -25 -61 -43 -115 -40 -120 12
-19 27 -8 42 31 l16 40 67 0 68 0 16 -40 c16 -40 29 -49 41 -30 4 6 -17 71
-47 145 -46 118 -56 135 -76 135 -15 0 -26 -8 -32 -25z m59 -84 c11 -32 21
-61 21 -65 0 -3 -22 -6 -50 -6 -27 0 -50 3 -50 7 0 15 45 123 51 123 4 0 16
-26 28 -59z"/>
<path d="M2760 205 c0 -138 1 -145 20 -145 18 0 20 7 20 55 l0 55 35 0 c67 0
115 39 115 94 0 61 -38 86 -130 86 l-60 0 0 -145z m132 98 c22 -19 24 -66 3
-83 -8 -6 -32 -14 -55 -17 l-40 -6 0 62 0 61 37 0 c20 0 45 -7 55 -17z"/>
<path d="M3000 205 c0 -138 1 -145 20 -145 18 0 20 7 20 54 l0 53 52 5 c40 4
57 11 75 32 31 37 31 89 -2 121 -21 22 -33 25 -95 25 l-70 0 0 -145z m131 105
c13 -7 19 -21 19 -45 0 -41 -29 -65 -77 -65 l-33 0 0 60 0 60 36 0 c19 0 44
-5 55 -10z"/>
<path d="M3271 223 c-59 -151 -61 -156 -40 -160 11 -3 20 9 29 37 l13 40 69 0
68 0 16 -40 c11 -28 22 -40 33 -37 21 4 20 8 -40 160 -45 111 -54 127 -74 127
-20 0 -29 -16 -74 -127z m118 -40 c1 -9 -15 -13 -49 -13 -27 0 -50 2 -50 5 0
3 12 35 27 72 l27 67 22 -60 c13 -32 23 -65 23 -71z"/>
<path d="M3520 205 c0 -138 1 -145 20 -145 18 0 20 7 20 65 0 56 3 65 18 65
30 0 61 -29 88 -82 18 -35 30 -48 40 -44 9 3 18 6 20 6 2 0 -9 27 -26 60 -17
33 -35 60 -40 60 -6 0 -10 5 -10 10 0 6 6 10 13 10 23 0 47 35 47 68 0 49 -38
72 -121 72 l-69 0 0 -145z m131 105 c26 -14 24 -55 -3 -74 -12 -9 -37 -16 -55
-16 -33 0 -33 0 -33 50 l0 50 36 0 c19 0 44 -5 55 -10z"/>
<path d="M3780 205 l0 -145 85 0 c69 0 85 3 85 15 0 12 -14 15 -65 15 l-65 0
0 55 0 55 55 0 c42 0 55 3 55 15 0 12 -13 15 -55 15 l-55 0 0 45 0 45 65 0
c51 0 65 3 65 15 0 12 -16 15 -85 15 l-85 0 0 -145z"/>
<path d="M4010 205 l0 -145 85 0 c78 0 85 2 85 20 0 18 -7 20 -65 20 l-65 0 0
125 c0 118 -1 125 -20 125 -19 0 -20 -7 -20 -145z"/>
<path d="M4914 96 c-8 -21 3 -36 27 -36 15 0 20 6 17 22 -4 27 -35 37 -44 14z"/>
</g>
</svg>
